<?xml version="1.0" encoding="UTF-8" standalone="no"?>
<!DOCTYPE svg PUBLIC "-//W3C//DTD SVG 1.1//EN" "http://www.w3.org/Graphics/SVG/1.1/DTD/svg11.dtd">
<svg width="100%" height="100%" viewBox="0 0 418 164" version="1.1" xmlns="http://www.w3.org/2000/svg" xmlns:xlink="http://www.w3.org/1999/xlink" xml:space="preserve" xmlns:serif="http://www.serif.com/" style="fill-rule:evenodd;clip-rule:evenodd;stroke-linejoin:round;stroke-miterlimit:2;">
    <g transform="matrix(1,0,0,1,-16.9709,-21.3611)">
        <g transform="matrix(0.288545,0,0,0.288545,11.6686,21.0413)">
            <path d="M268.57,564.95C260.49,556 249.58,536.22 246.95,525.75C246.3,523.14 245.4,521 244.95,521C244.5,521 240.84,524.6 236.82,529C232.79,533.4 229.05,536.99 228.5,536.98C227.95,536.97 225.46,535.06 222.97,532.73C216.31,526.5 187.28,500.01 175.08,489.03C169.26,483.79 158.95,474.11 152.16,467.53C127.22,443.31 120,426.3 120,391.74L120,376.74L115.11,370.12C95.13,343.05 86.78,317.11 88.36,286.95C89.38,267.47 94.76,250.27 105.56,231.99C108.57,226.89 110.87,222.54 110.67,222.34C110.46,222.13 102.92,220.86 93.9,219.52C66.05,215.37 43,209.74 30.5,204.04C15.07,197 14.33,187.98 28.5,179.52C48.96,167.3 81.65,157.65 113.25,154.51C119.12,153.93 120.06,153.56 120.41,151.67C124.69,129.06 129.4,114.07 137.02,98.8C143.23,86.36 148.52,78.61 156.84,69.78C165.82,60.25 170.04,57.28 194.5,43.32C206.05,36.72 224.28,26.02 235,19.53C261.27,3.63 265.03,1.75 271.44,1.21C278.51,0.63 281.34,1.96 312.5,20.65C326.25,28.9 345.37,40.06 354.99,45.44C377.1,57.82 379.92,59.76 388.61,68.51C407.07,87.11 419.1,113.45 426.53,151.54C426.89,153.36 428.38,153.77 440.22,155.36C473.01,159.76 498.93,167.6 517.92,178.88C525.03,183.11 529,187.82 529,192.04C529,195.87 521.34,202.23 512.41,205.84C497.57,211.82 464.73,218.94 444.25,220.61C439.71,220.98 436,221.57 436,221.92C436,222.27 438.1,225.92 440.66,230.03C449.57,244.31 455.44,259.68 457.98,275.33C459.28,283.32 459.27,302.7 457.96,311C455.16,328.8 445.24,351.71 433.59,367.34L427.3,375.77L426.7,394.14C425.84,420.25 421.65,434.98 411.05,449.07C405.63,456.28 388.57,473.13 365.56,494C346.38,511.39 330.93,525.47 324,531.87C320.98,534.66 318.05,536.92 317.5,536.87C316.95,536.83 312.9,532.9 308.5,528.13L300.5,519.46L298.79,525.48C296.26,534.4 286.82,552.47 280.26,560.93C277.09,565.01 274,568.51 273.4,568.71C272.79,568.91 270.62,567.21 268.57,564.95M276.37,534.25C278.24,530.54 280.53,524.75 281.47,521.39C283.16,515.38 283.15,515.21 280.98,510.89C278.02,504.98 273.64,498 272.89,498C271.87,498 265.39,508.27 264.03,512.05C262.94,515.07 263,516.5 264.44,521.55C266.03,527.11 271.88,541 272.64,541C272.82,541 274.5,537.96 276.37,534.25M325.45,501.63C325.68,500.46 326.12,495.42 326.41,490.43C327,480.62 329.91,469.57 332.87,465.91L334.73,463.62L336.04,466.06C337.83,469.4 339.92,479.53 339.96,485.08C339.98,487.6 340.24,489.91 340.54,490.21C340.84,490.5 343.71,487.99 346.92,484.62L352.75,478.5L353.24,468.5C353.92,454.71 358.25,443 362.68,443C364.95,443 366.08,447.82 366.26,458.21L366.43,468.05L372.66,461.78C378.89,455.5 378.89,455.5 379.46,448.5C380.47,436.02 381.1,432.57 383.18,428.2C384.54,425.34 385.77,424 386.86,424.21C389.17,424.66 391.29,429.62 391.81,435.79C392.24,440.92 392.31,441.03 394.16,439.36C399.97,434.1 405.77,418.3 406.71,405.15L407.31,396.81L395.41,405.77C380.27,417.16 368.92,423.95 341.5,437.99C329.4,444.18 316.29,451.05 312.36,453.24L305.21,457.23L304.03,463.37C303.38,466.74 302.24,470.74 301.5,472.25C300.26,474.78 300.41,475.44 303.36,480.34C305.13,483.28 309.25,491.4 312.52,498.41L318.46,511.13L321.74,507.44C323.55,505.41 325.21,502.8 325.45,501.63M230.94,504.25C232.21,501.09 235.93,493.38 239.2,487.12L245.15,475.73L243.55,469.62C242.67,466.25 241.81,462.38 241.64,461C241.27,458.02 235.27,454.37 206,439.34C183.08,427.57 161.85,414.77 149.12,405.04L140,398.07L140,403.37C140,410.36 143.2,422.63 147.08,430.51C148.8,433.99 153.42,440.75 157.35,445.52L164.5,454.2L164.76,450.85C164.9,449.01 165.49,443.68 166.07,439C167.66,426.12 170.41,424.95 175.49,434.98C178.91,441.73 181.08,450.02 181.96,459.68L182.74,468.22L190.22,475.7L197.69,483.18L198.34,474.74C199.21,463.37 201.93,454.5 204.53,454.5C206.03,454.5 207.02,456 208.76,460.89C211.54,468.69 214,482.3 214,489.89C214,495.44 214.1,495.64 220.63,502.76C224.27,506.74 227.56,510 227.94,510C228.32,510 229.67,507.41 230.94,504.25M258.31,494.71C263.67,489.56 267.65,487.65 273.08,487.63C278.68,487.61 285.38,491.25 289.59,496.58C296.42,505.24 296.16,505.11 295.41,499.5C293.37,484.29 282.68,472.99 271.51,474.25C260.88,475.44 253.24,484.97 250.45,500.5L249.74,504.5L252.05,501.5C253.32,499.85 256.14,496.79 258.31,494.71M267.85,459.14C274.04,457.82 281.24,459.24 287.25,462.97L292,465.92L291.99,462.21C291.99,456.29 290.27,451.68 286.4,447.16C281.94,441.94 278.3,440 273,440C263.47,440 255.79,448.44 254.37,460.48L253.71,466.14L258.45,463.13C261.06,461.48 265.29,459.68 267.85,459.14M252.35,427.37C245.92,421.5 228.49,411.26 207,400.73C173.99,384.55 164.06,378.1 151,364.38C136.94,349.61 126.87,333.75 121.42,317.8C116.37,303.02 113,270.39 115.35,259L116.07,255.5L114.56,258.13C113.74,259.58 111.85,264.76 110.37,269.63C107.98,277.53 107.69,280.09 107.71,293C107.73,305.54 108.1,308.85 110.42,317.5C115.89,337.85 127.56,356.66 146.45,375.54C163.17,392.26 177.06,401.68 212,419.99C223.82,426.19 236.65,433.34 240.49,435.88L247.49,440.5L252.19,436L256.88,431.5L252.35,427.37M306,435.43C309.57,433.13 321.73,426.53 333,420.77C374.72,399.42 391.49,387.4 409.68,365.82C423.95,348.88 432.73,333.04 437.07,316.38C439.73,306.14 440.67,288.43 439.06,278.48C437.93,271.47 434.3,259.15 432.32,255.61C431.87,254.8 431.66,261.43 431.85,270.34C432.52,301.79 426.34,324.21 410.79,346.7C402.84,358.21 389,372.2 378.89,378.96C374,382.24 358.23,390.82 343.85,398.04C317.29,411.37 306.48,417.43 297.5,424.02C289.53,429.87 289.44,430.13 293.49,434.56C295.42,436.67 297,439 297,439.75C297,441.27 296.65,441.44 306,435.43M280.34,414.46C293.85,402.11 306.96,394.25 340.5,378.38C364.75,366.91 370.43,363.4 381.02,353.32C390.23,344.56 398.11,333.85 403.96,322.15C407.16,315.73 407.6,312.91 404.7,317.34C402.34,320.94 388.54,331.7 382.14,334.93C359.63,346.29 331.62,343.36 311,327.5C307.74,324.99 304.39,321.96 303.56,320.78C301.73,318.17 301.83,318.05 299.58,325.5C296.15,336.88 277.78,372.45 273.51,375.99C272.39,376.92 271.25,375.64 267.53,369.32C260.23,356.9 250.46,337.16 247.59,329C246.13,324.88 244.73,320.89 244.46,320.14C244.13,319.2 242.84,319.9 240.24,322.45C235.42,327.17 224.96,334 218.16,336.87C211.65,339.63 199.72,342 192.37,342C176.37,342 157.42,334.29 146.69,323.41C142.94,319.61 142.89,319.59 143.99,322.48C147.28,331.13 159.24,347.41 168.39,355.69C176.64,363.16 184.91,367.97 213.5,381.95C243.29,396.51 256.22,404.51 265.97,414.42C269.53,418.04 272.61,421 272.81,421C273.01,421 276.4,418.06 280.34,414.46M279.5,336.75C283,329.46 287.05,319.96 288.49,315.64L291.12,307.78L288.52,302.45C285.8,296.89 276.05,287 273.29,287C269.47,287 260.7,294.98 257.16,301.68C255.61,304.61 255.77,311.8 257.46,315.5L258.84,318.5L258.92,313.29C258.98,309.2 259.42,307.85 260.93,307.04C263.34,305.75 267.69,305.69 268.46,306.94C268.78,307.45 269.48,314.99 270.01,323.69C271.08,341.06 271.99,350 272.68,350C272.93,350 276,344.04 279.5,336.75M211.5,320.45C223.37,316.15 235.28,306.85 245.17,294.14C248.01,290.49 252.53,285.22 255.21,282.42L260.09,277.35L252.47,273.58C248.28,271.51 244.73,269.97 244.58,270.16C244.43,270.35 243.53,272.96 242.56,275.97C233.56,304.14 197.67,314.31 174.25,295.32C157.97,282.11 155.04,254.83 167.98,236.76C170.19,233.68 172,230.93 172,230.66C172,230.39 169.64,228.72 166.75,226.94C163.86,225.17 157.22,220.48 152,216.52C146.78,212.56 135.07,203.96 126,197.41L109.5,185.5L125.5,184.89C147.58,184.04 387.14,183.85 415.75,184.66C428.54,185.02 439,185.61 439,185.95C439,186.3 435.74,188.91 431.75,191.75C427.76,194.59 421.57,199.03 418,201.61C411.17,206.54 379.72,227.73 376.49,229.58C374.72,230.59 374.86,231.03 378.79,236.93C395.64,262.16 384.24,296.23 356.53,303.45C335.34,308.97 314.97,299.79 305.91,280.65C304.31,277.27 302.99,273.82 302.99,273C302.94,268.73 301.37,268.66 294.11,272.58C287.01,276.41 286.09,277.32 288.03,278.52C288.59,278.87 293.39,284.57 298.69,291.19C309.74,304.98 318.49,312.7 328.5,317.47C337.36,321.69 343.73,323 355.3,322.99C371.8,322.97 383.01,318.22 395.11,306.11C407,294.23 412.13,282.11 412.11,266C412.09,251.9 408.38,241.54 399.47,230.72C396.85,227.55 394.89,224.81 395.11,224.64C395.32,224.47 440,188.88 440,186.94C440,185.69 458.49,185.74 474.48,187.04C481.51,187.61 487.44,187.89 487.66,187.67C488.35,186.98 466.98,180.22 457.5,178.12C434.02,172.94 430.85,172.72 367.77,172.09L308.04,171.5L305.42,168.88C302.47,165.93 301.83,160.11 304.15,157.32C307.57,153.19 309.95,153 358.58,153L405.22,153L404.65,150.73C404.33,149.49 403.57,146.11 402.96,143.23L401.83,138L145.08,138L144.1,141.75C143.56,143.81 142.82,147.19 142.45,149.25L141.78,153L171.24,153C189.67,153 201.86,153.4 203.78,154.07C210,156.24 211.93,163.65 207.59,168.69L205.18,171.5L161.34,172.11C108.12,172.86 97.49,174.26 68.5,184.36C57.33,188.26 57.77,188.4 76.94,187.05C84.4,186.52 94.35,185.9 99.06,185.67L107.63,185.24L152.84,224.42L149.05,228.96C136.87,243.54 132.44,258.8 135.42,275.86C139.1,296.96 153.35,313.57 173.94,320.77C179.79,322.82 181.9,323.02 193.5,322.66C202.7,322.38 207.96,321.74 211.5,320.45M215.11,290.27C223.8,286.43 231.93,276.57 233.46,268C234.09,264.52 233.12,263.38 226.87,260.23C226.52,260.06 225.92,261.6 225.54,263.66C223.99,271.91 219.64,277.45 212,280.92C196.63,287.89 180,276.76 180,259.5C180,253.1 181.97,247.68 185.73,243.76C187.17,242.25 188.16,240.88 187.93,240.71C187.69,240.54 186.25,239.62 184.73,238.66C182.01,236.96 181.92,236.98 179.49,239.72C175.14,244.62 171.74,252.99 171.25,260C170.26,274.39 179.78,287.69 193.95,291.7C199.94,293.39 209.52,292.75 215.11,290.27M358.39,289.2C363.34,286.88 365.67,285 368.75,280.85C373.79,274.07 375,270.39 375,261.86C375,254.13 372.79,247.21 368.52,241.62C365.56,237.73 364.45,237.38 360.64,239.12L358.19,240.23L361.57,244.66C367.91,252.96 368.55,263.35 363.25,271.92C358.47,279.64 347.47,284.66 339.12,282.91C331.3,281.27 322.33,271.86 321.3,264.21L320.75,260.09L316.78,262.11C312.98,264.05 312.83,264.3 313.48,267.77C314.98,275.73 320.71,283.66 328.45,288.47C336.85,293.69 348.2,293.97 358.39,289.2M307,244.01C321.57,236.47 343.85,224.99 356.5,218.49C369.15,212 380.39,206.09 381.47,205.35C383.13,204.21 366.14,204 274.72,204C214.93,204 166,204.19 166,204.41C166,205.25 183.22,214.72 210,228.61C225.12,236.45 245.38,247.1 255,252.25L272.5,261.63L276.5,259.68C278.7,258.61 292.43,251.56 307,244.01M198.6,259.23C204.08,255.58 200.85,247 193.99,247C192.05,247 188,251.4 188,253.5C188,254.18 188.93,255.92 190.07,257.37C192.12,259.97 196.17,260.86 198.6,259.23M354.7,259.21C356.71,257.93 357.82,253.7 356.75,251.36C355.25,248.06 351.95,246.98 348.19,248.56C345.2,249.82 344.46,251.3 344.97,255C345.52,258.95 351.23,261.41 354.7,259.21M390.36,116.5C389.24,112.9 383.83,102.63 379.55,96C375.17,89.22 365.11,78.35 358.87,73.67C350.57,67.44 310.49,44.15 310.21,45.4C309.74,47.47 313.76,57.29 317.26,62.61C319.03,65.3 323.97,70.91 328.24,75.08C332.51,79.26 336,83.14 336,83.72C336,84.3 335.17,85.8 334.15,87.06C328.44,94.11 307.7,81.84 298.18,65.77C293.4,57.71 289.95,46.97 289.17,37.75L288.5,29.73L280.64,25.17L272.78,20.6L257.5,28.88L256.79,36.56C255.85,46.62 253.71,53.78 248.81,63.22C239.83,80.54 216.92,94.91 211.49,86.62C209.37,83.39 210.92,80.18 216.7,75.85C222.14,71.78 226.71,66.31 230.77,59C233.98,53.24 236.7,45.36 235.79,44.46C234.76,43.43 189.84,71.24 183,77.14C174.11,84.81 167.25,93.96 160.99,106.5C158.24,112 155.99,116.83 156,117.24C156,118.06 214.28,118.5 321.24,118.5C390.52,118.5 390.97,118.49 390.36,116.5M281.25,318.32C279.82,317.76 279.55,309.27 280.89,307.15C282.48,304.63 286,307.57 286,311.42C286,315.08 283.24,319.09 281.25,318.32M223.07,168.37C218.37,162.39 222.13,154 229.5,154C231.98,154 233.85,154.76 235.55,156.45C241.1,162.01 237.13,171 229.12,171C226.02,171 224.69,170.42 223.07,168.37Z" style="fill:rgb(0,81,71);fill-rule:nonzero;"/>
        </g>
        <g transform="matrix(0.833502,0,0,0.833502,-17.6519,-71.6213)">
            <g transform="matrix(109.918,0,0,109.918,215.011,201.968)">
                <path d="M0.138,-0.701C0.147,-0.701 0.157,-0.699 0.168,-0.694C0.178,-0.689 0.186,-0.682 0.191,-0.674L0.434,-0.3L0.384,-0.302L0.633,-0.674C0.646,-0.692 0.662,-0.701 0.682,-0.701C0.698,-0.701 0.712,-0.695 0.725,-0.684C0.738,-0.673 0.744,-0.658 0.744,-0.64L0.744,-0.061C0.744,-0.044 0.738,-0.029 0.727,-0.018C0.716,-0.006 0.701,-0 0.682,-0C0.663,-0 0.648,-0.006 0.637,-0.018C0.625,-0.029 0.619,-0.044 0.619,-0.061L0.619,-0.532L0.658,-0.523L0.454,-0.212C0.448,-0.205 0.44,-0.198 0.432,-0.193C0.423,-0.188 0.413,-0.185 0.404,-0.186C0.395,-0.185 0.387,-0.188 0.378,-0.193C0.369,-0.198 0.361,-0.205 0.355,-0.212L0.164,-0.514L0.19,-0.567L0.19,-0.061C0.19,-0.044 0.185,-0.029 0.174,-0.018C0.163,-0.006 0.149,-0 0.132,-0C0.115,-0 0.102,-0.006 0.091,-0.018C0.08,-0.029 0.075,-0.044 0.075,-0.061L0.075,-0.64C0.075,-0.657 0.081,-0.671 0.094,-0.683C0.106,-0.695 0.121,-0.701 0.138,-0.701Z" style="fill:rgb(0,121,107);fill-rule:nonzero;"/>
            </g>
            <g transform="matrix(109.918,0,0,109.918,305.034,201.968)">
                <path d="M0.178,-0.061C0.178,-0.044 0.172,-0.029 0.161,-0.018C0.15,-0.006 0.135,-0 0.118,-0C0.101,-0 0.086,-0.006 0.075,-0.018C0.064,-0.029 0.058,-0.044 0.058,-0.061L0.058,-0.474C0.058,-0.491 0.064,-0.506 0.075,-0.518C0.086,-0.529 0.101,-0.535 0.118,-0.535C0.135,-0.535 0.15,-0.529 0.161,-0.518C0.172,-0.506 0.178,-0.491 0.178,-0.474L0.178,-0.061ZM0.117,-0.6C0.094,-0.6 0.078,-0.604 0.069,-0.611C0.06,-0.618 0.055,-0.631 0.055,-0.65L0.055,-0.669C0.055,-0.688 0.06,-0.702 0.071,-0.709C0.081,-0.716 0.097,-0.719 0.118,-0.719C0.141,-0.719 0.158,-0.715 0.167,-0.708C0.176,-0.701 0.181,-0.688 0.181,-0.669L0.181,-0.65C0.181,-0.631 0.176,-0.618 0.166,-0.611C0.156,-0.604 0.14,-0.6 0.117,-0.6Z" style="fill:rgb(0,121,107);fill-rule:nonzero;"/>
            </g>
            <g transform="matrix(109.918,0,0,109.918,330.975,201.968)">
                <path d="M0.2,0.01C0.2,0.048 0.193,0.081 0.178,0.109C0.163,0.136 0.144,0.158 0.119,0.173C0.094,0.188 0.067,0.196 0.036,0.196C0.019,0.196 0.006,0.191 -0.005,0.18C-0.015,0.169 -0.02,0.155 -0.02,0.14L-0.02,0.129C-0.02,0.114 -0.015,0.103 -0.006,0.094C0.004,0.085 0.016,0.079 0.031,0.074C0.047,0.069 0.058,0.061 0.065,0.052C0.072,0.042 0.076,0.03 0.078,0.017C0.079,0.004 0.08,-0.01 0.08,-0.025L0.08,-0.474C0.08,-0.491 0.086,-0.506 0.097,-0.518C0.108,-0.529 0.123,-0.535 0.14,-0.535C0.157,-0.535 0.172,-0.529 0.183,-0.518C0.194,-0.506 0.2,-0.491 0.2,-0.474L0.2,0.01ZM0.138,-0.6C0.115,-0.6 0.099,-0.604 0.09,-0.611C0.081,-0.618 0.076,-0.631 0.076,-0.65L0.076,-0.669C0.076,-0.688 0.081,-0.702 0.092,-0.709C0.102,-0.716 0.118,-0.719 0.139,-0.719C0.162,-0.719 0.179,-0.715 0.188,-0.708C0.197,-0.701 0.202,-0.688 0.202,-0.669L0.202,-0.65C0.202,-0.631 0.197,-0.618 0.187,-0.611C0.177,-0.604 0.161,-0.6 0.138,-0.6Z" style="fill:rgb(0,121,107);fill-rule:nonzero;"/>
            </g>
            <g transform="matrix(109.918,0,0,109.918,361.202,201.968)">
                <path d="M0.351,-0.545C0.4,-0.545 0.438,-0.535 0.464,-0.514C0.489,-0.493 0.507,-0.466 0.517,-0.432C0.526,-0.397 0.531,-0.359 0.531,-0.317L0.531,-0.061C0.531,-0.044 0.525,-0.029 0.514,-0.018C0.503,-0.006 0.488,-0 0.471,-0C0.454,-0 0.439,-0.006 0.428,-0.018C0.417,-0.029 0.411,-0.044 0.411,-0.061L0.411,-0.317C0.411,-0.339 0.408,-0.359 0.403,-0.377C0.397,-0.394 0.387,-0.408 0.372,-0.419C0.357,-0.43 0.336,-0.435 0.309,-0.435C0.282,-0.435 0.26,-0.43 0.242,-0.419C0.223,-0.408 0.209,-0.394 0.2,-0.377C0.19,-0.359 0.185,-0.339 0.185,-0.317L0.185,-0.061C0.185,-0.044 0.179,-0.029 0.168,-0.018C0.157,-0.006 0.142,-0 0.125,-0C0.108,-0 0.093,-0.006 0.082,-0.018C0.071,-0.029 0.065,-0.044 0.065,-0.061L0.065,-0.474C0.065,-0.491 0.071,-0.506 0.082,-0.518C0.093,-0.529 0.108,-0.535 0.125,-0.535C0.142,-0.535 0.157,-0.529 0.168,-0.518C0.179,-0.506 0.185,-0.491 0.185,-0.474L0.185,-0.431L0.17,-0.434C0.176,-0.445 0.185,-0.458 0.196,-0.471C0.207,-0.484 0.221,-0.496 0.236,-0.507C0.251,-0.518 0.269,-0.528 0.288,-0.535C0.307,-0.542 0.328,-0.545 0.351,-0.545Z" style="fill:rgb(0,121,107);fill-rule:nonzero;"/>
            </g>
            <g transform="matrix(109.918,0,0,109.918,426.713,201.968)">
            </g>
            <g transform="matrix(109.918,0,0,109.918,215.011,295.577)">
                <path d="M0.312,-0C0.293,-0 0.278,-0.006 0.266,-0.018C0.254,-0.029 0.248,-0.044 0.248,-0.061L0.248,-0.641L0.378,-0.641L0.378,-0.061C0.378,-0.044 0.372,-0.029 0.36,-0.018C0.347,-0.006 0.331,-0 0.312,-0ZM0.091,-0.585C0.074,-0.585 0.059,-0.59 0.048,-0.601C0.036,-0.612 0.03,-0.626 0.03,-0.643C0.03,-0.66 0.036,-0.674 0.048,-0.685C0.059,-0.695 0.074,-0.7 0.091,-0.7L0.535,-0.7C0.552,-0.7 0.567,-0.695 0.579,-0.684C0.59,-0.673 0.596,-0.659 0.596,-0.642C0.596,-0.625 0.59,-0.611 0.579,-0.601C0.567,-0.59 0.552,-0.585 0.535,-0.585L0.091,-0.585Z" style="fill:rgb(0,121,107);fill-rule:nonzero;"/>
            </g>
            <g transform="matrix(109.918,0,0,109.918,270.63,295.577)">
                <path d="M0.584,-0.267C0.584,-0.212 0.572,-0.164 0.548,-0.123C0.523,-0.081 0.491,-0.048 0.45,-0.025C0.409,-0.002 0.363,0.01 0.312,0.01C0.261,0.01 0.216,-0.002 0.175,-0.025C0.134,-0.048 0.101,-0.081 0.077,-0.123C0.052,-0.164 0.04,-0.212 0.04,-0.267C0.04,-0.322 0.052,-0.37 0.077,-0.412C0.101,-0.453 0.134,-0.486 0.175,-0.51C0.216,-0.533 0.261,-0.545 0.312,-0.545C0.363,-0.545 0.409,-0.533 0.45,-0.51C0.491,-0.486 0.523,-0.453 0.548,-0.412C0.572,-0.37 0.584,-0.322 0.584,-0.267ZM0.464,-0.267C0.464,-0.301 0.457,-0.331 0.444,-0.356C0.43,-0.381 0.411,-0.4 0.389,-0.414C0.366,-0.428 0.34,-0.435 0.312,-0.435C0.284,-0.435 0.259,-0.428 0.236,-0.414C0.213,-0.4 0.194,-0.381 0.181,-0.356C0.167,-0.331 0.16,-0.301 0.16,-0.267C0.16,-0.234 0.167,-0.204 0.181,-0.18C0.194,-0.155 0.213,-0.135 0.236,-0.121C0.259,-0.107 0.284,-0.1 0.312,-0.1C0.34,-0.1 0.366,-0.107 0.389,-0.121C0.411,-0.135 0.43,-0.155 0.444,-0.18C0.457,-0.204 0.464,-0.234 0.464,-0.267Z" style="fill:rgb(0,121,107);fill-rule:nonzero;"/>
            </g>
            <g transform="matrix(109.918,0,0,109.918,339.218,295.577)">
                <path d="M0.071,-0.525L0.308,-0.525C0.324,-0.525 0.337,-0.52 0.348,-0.509C0.359,-0.498 0.364,-0.485 0.364,-0.469C0.364,-0.454 0.359,-0.441 0.348,-0.431C0.337,-0.42 0.324,-0.415 0.308,-0.415L0.071,-0.415C0.055,-0.415 0.042,-0.42 0.031,-0.431C0.02,-0.442 0.015,-0.455 0.015,-0.471C0.015,-0.486 0.02,-0.499 0.031,-0.51C0.042,-0.52 0.055,-0.525 0.071,-0.525ZM0.178,-0.65C0.195,-0.65 0.21,-0.644 0.221,-0.633C0.232,-0.621 0.237,-0.606 0.237,-0.589L0.237,-0.144C0.237,-0.135 0.239,-0.127 0.243,-0.121C0.246,-0.115 0.251,-0.111 0.258,-0.108C0.264,-0.105 0.271,-0.104 0.278,-0.104C0.286,-0.104 0.293,-0.106 0.3,-0.109C0.307,-0.112 0.314,-0.113 0.323,-0.113C0.332,-0.113 0.341,-0.109 0.349,-0.1C0.356,-0.091 0.36,-0.079 0.36,-0.064C0.36,-0.045 0.35,-0.03 0.33,-0.018C0.309,-0.006 0.287,-0 0.264,-0C0.25,-0 0.235,-0.001 0.218,-0.004C0.201,-0.006 0.185,-0.012 0.17,-0.021C0.155,-0.03 0.142,-0.043 0.132,-0.062C0.122,-0.081 0.117,-0.106 0.117,-0.139L0.117,-0.589C0.117,-0.606 0.123,-0.621 0.135,-0.633C0.146,-0.644 0.161,-0.65 0.178,-0.65Z" style="fill:rgb(0,121,107);fill-rule:nonzero;"/>
            </g>
            <g transform="matrix(109.918,0,0,109.918,383.625,295.577)">
                <path d="M0.317,0.01C0.26,0.01 0.211,-0.002 0.17,-0.026C0.128,-0.049 0.096,-0.081 0.074,-0.122C0.051,-0.163 0.04,-0.209 0.04,-0.26C0.04,-0.32 0.052,-0.371 0.077,-0.414C0.101,-0.456 0.133,-0.488 0.172,-0.511C0.211,-0.534 0.253,-0.545 0.297,-0.545C0.331,-0.545 0.363,-0.538 0.394,-0.524C0.424,-0.51 0.451,-0.491 0.474,-0.467C0.497,-0.442 0.516,-0.414 0.53,-0.382C0.543,-0.35 0.55,-0.316 0.55,-0.28C0.549,-0.264 0.543,-0.251 0.531,-0.241C0.519,-0.231 0.505,-0.226 0.489,-0.226L0.107,-0.226L0.077,-0.326L0.444,-0.326L0.422,-0.306L0.422,-0.333C0.421,-0.352 0.414,-0.37 0.402,-0.385C0.389,-0.4 0.374,-0.413 0.356,-0.422C0.337,-0.431 0.318,-0.435 0.297,-0.435C0.277,-0.435 0.258,-0.432 0.241,-0.427C0.224,-0.422 0.209,-0.413 0.196,-0.4C0.183,-0.387 0.173,-0.37 0.166,-0.349C0.159,-0.328 0.155,-0.301 0.155,-0.268C0.155,-0.232 0.163,-0.202 0.178,-0.177C0.193,-0.152 0.212,-0.133 0.236,-0.12C0.259,-0.107 0.284,-0.1 0.311,-0.1C0.336,-0.1 0.355,-0.102 0.37,-0.106C0.385,-0.11 0.397,-0.115 0.406,-0.121C0.415,-0.126 0.423,-0.131 0.43,-0.135C0.442,-0.141 0.453,-0.144 0.464,-0.144C0.479,-0.144 0.491,-0.139 0.501,-0.129C0.51,-0.119 0.515,-0.107 0.515,-0.094C0.515,-0.076 0.506,-0.06 0.487,-0.045C0.47,-0.03 0.445,-0.017 0.414,-0.007C0.383,0.005 0.35,0.01 0.317,0.01Z" style="fill:rgb(0,121,107);fill-rule:nonzero;"/>
            </g>
            <g transform="matrix(109.918,0,0,109.918,448.477,295.577)">
                <path d="M0.346,-0.545C0.399,-0.545 0.439,-0.532 0.464,-0.507C0.489,-0.481 0.506,-0.448 0.514,-0.407L0.497,-0.416L0.505,-0.432C0.513,-0.447 0.525,-0.464 0.542,-0.482C0.559,-0.499 0.579,-0.514 0.603,-0.527C0.626,-0.539 0.653,-0.545 0.682,-0.545C0.73,-0.545 0.767,-0.535 0.792,-0.514C0.817,-0.493 0.834,-0.466 0.843,-0.432C0.852,-0.397 0.857,-0.359 0.857,-0.317L0.857,-0.061C0.857,-0.044 0.851,-0.029 0.84,-0.018C0.829,-0.006 0.814,-0 0.797,-0C0.78,-0 0.765,-0.006 0.754,-0.018C0.743,-0.029 0.737,-0.044 0.737,-0.061L0.737,-0.317C0.737,-0.339 0.734,-0.359 0.729,-0.377C0.724,-0.394 0.714,-0.408 0.7,-0.419C0.686,-0.43 0.666,-0.435 0.64,-0.435C0.615,-0.435 0.593,-0.43 0.575,-0.419C0.557,-0.408 0.544,-0.394 0.535,-0.377C0.526,-0.359 0.521,-0.339 0.521,-0.317L0.521,-0.061C0.521,-0.044 0.515,-0.029 0.504,-0.018C0.493,-0.006 0.478,-0 0.461,-0C0.444,-0 0.429,-0.006 0.418,-0.018C0.407,-0.029 0.401,-0.044 0.401,-0.061L0.401,-0.317C0.401,-0.339 0.398,-0.359 0.393,-0.377C0.388,-0.394 0.378,-0.408 0.364,-0.419C0.35,-0.43 0.33,-0.435 0.304,-0.435C0.279,-0.435 0.257,-0.43 0.239,-0.419C0.221,-0.408 0.208,-0.394 0.199,-0.377C0.19,-0.359 0.185,-0.339 0.185,-0.317L0.185,-0.061C0.185,-0.044 0.179,-0.029 0.168,-0.018C0.157,-0.006 0.142,-0 0.125,-0C0.108,-0 0.093,-0.006 0.082,-0.018C0.071,-0.029 0.065,-0.044 0.065,-0.061L0.065,-0.474C0.065,-0.491 0.071,-0.506 0.082,-0.518C0.093,-0.529 0.108,-0.535 0.125,-0.535C0.142,-0.535 0.157,-0.529 0.168,-0.518C0.179,-0.506 0.185,-0.491 0.185,-0.474L0.185,-0.431L0.17,-0.434C0.176,-0.445 0.184,-0.458 0.195,-0.471C0.206,-0.484 0.219,-0.496 0.234,-0.507C0.249,-0.518 0.266,-0.528 0.285,-0.535C0.304,-0.542 0.324,-0.545 0.346,-0.545Z" style="fill:rgb(0,121,107);fill-rule:nonzero;"/>
            </g>
            <g transform="matrix(109.918,0,0,109.918,549.821,295.577)">
            </g>
        </g>
    </g>
</svg>
